<svg width="90" height="101" viewBox="0 0 70 81" fill="none" xmlns="http://www.w3.org/2000/svg">
    <path
        d="M17.056 0L25.7481 9.47745L10.7694 81H0L17.056 0Z"
        fill="#transparent">
        <animate
            attributeName='fill'
            begin="0.7s"
            dur='1.5s'
            values='transparent;#F13737;transparent'
            repeatCount='indefinite'
        />
    </path>
    <path
    d="M17.0823 0.0590668C70 0.0590668 17.0823 0.0590668 70 0.0590668L68.0321 9.53652H25.7744L17.0823 0.0590668Z"
    fill="#transparent">
    <animate
        attributeName='fill'
        begin="0.8s"
        dur='1.5s'
        values='transparent;transparent;#F13737;transparent'
        repeatCount='indefinite'
    />
</path>

    <path
        d="M27.9355 74.1845C21.2377 74.057 13.8854 68.2794 9.08326 63.3118C8.49347 64.3308 7.31393 66.9037 7.31393 69.0436C15.1491 76.9411 20.8864 80.921 30.1117 80.921C37.492 80.921 45.184 76.9837 47.7537 74.7755L50.2181 72.4827L52.6824 70.1899C60.0462 61.2514 60.569 49.5752 55.4464 39.2481C50.6428 29.5648 41.2451 22.3594 22.5504 25.7796C40.5255 25.7796 59.1765 43.3998 48.3855 64.458C48.3855 64.458 48.3855 64.458 43.8587 68.9646C39.5621 72.6588 34.6334 74.312 27.9355 74.1845Z"
        fill="#transparent">
        <animate
            attributeName='fill'
            begin="0.9s"
            dur='1.5s'
            values='transparent;transparent;transparent;#F13737;transparent'
            repeatCount='indefinite'
        />
    </path>
    <path
        d="M31.1767 54.3245L54.3033 80.947L58.7262 76.3613L53.0395 69.7374C48.7426 64.0055 48.7426 64.0055 48.7426 64.0055L35.9766 50.2853L43.9404 43.6247L35.2475 41.5029L19.4614 55.3934L24.2261 60.6934L31.1767 54.3245Z"
        fill="#transparent">
        <animate
            attributeName='fill'
            begin="1s"
            dur='1.5s'
            values='transparent;transparent;transparent;transparent;#F13737;transparent'
            repeatCount='indefinite'
        />
    </path>
</svg>
